# AST/ASF file generated using VICON BodyLanguage
# -----------------------------------------------
:version 1.10
:name VICON
:units
  mass 1.0
  length 0.45
  angle deg
:documentation
   .ast/.asf automatically generated from VICON data using
   VICON BodyBuilder and BodyLanguage model FoxedUp or BRILLIANT.MOD
:root
   order TX TY TZ RX RY RZ
   axis XYZ
   position 0 0 0  
   orientation 0 0 0 
:bonedata
  begin
     id 1 
     name lhipjoint
     direction 0.693937 -0.600361 0.397515 
     length 2.37164 
     axis 0 0 0  XYZ
  end
  begin
     id 2 
     name lfemur
     direction 0.34202 -0.939693 0  
     length 6.18497  
     axis 0 0 20  XYZ
    dof rx ry rz
    limits (-160.0 20.0)
           (-70.0 70.0)
           (-60.0 70.0)
  end
  begin
     id 3 
     name ltibia
     direction 0.34202 -0.939693 0   
     length 6.91601   
     axis 0 0 20   XYZ
    dof rx
    limits (-10.0 170.0)
  end
  begin
     id 4 
     name lfoot
     direction 0.0978718 -0.2689 0.958182   
     length 1.81453   
     axis -90 7.62852e-016 20   XYZ
    dof rx rz
    limits (-45.0 90.0)
           (-70.0 20.0)
  end
  begin
     id 5 
     name ltoes
     direction 1.53569e-011 -4.21951e-011 1   
     length 0.912052   
     axis -90 7.62852e-016 20   XYZ
    dof rx
    limits (-90.0 20.0)
  end
  begin
     id 6 
     name rhipjoint
     direction -0.643996 -0.637876 0.422354   
     length 2.23216  
     axis 0 0 0  XYZ 
  end
  begin
     id 7 
     name rfemur
     direction -0.34202 -0.939693 0   
     length 6.15404   
     axis 0 0 -20   XYZ
    dof rx ry rz
    limits (-160.0 20.0)
           (-70.0 70.0)
           (-70.0 60.0)
  end
  begin
     id 8 
     name rtibia
     direction -0.34202 -0.939693 0   
     length 6.86744   
     axis 0 0 -20   XYZ
    dof rx
    limits (-10.0 170.0)
 end
 begin
     id 9 
     name rfoot
     direction -0.118701 -0.326127 0.937844   
     length 1.9243  
     axis -90 -7.62852e-016 -20   XYZ
    dof rx rz
    limits (-45.0 90.0)
           (-20.0 70.0)
  end
  begin
     id 10 
     name rtoes
     direction -1.5356e-011 -4.2181e-011 1   
     length 0.958865   
     axis -90 -7.62852e-016 -20   XYZ
    dof rx
    limits (-90.0 20.0)
  end
  begin
     id 11 
     name lowerback
     direction 0.0310826 0.968686 -0.246334   
     length 2.00021   
     axis 0 0 0   XYZ
    dof rx ry rz
    limits (-20.0 45.0)
           (-30.0 30.0)
           (-30.0 30.0)
  end
  begin
     id 12 
     name upperback
     direction -0.0152834 0.999474 -0.0286152   
     length 2.03728   
     axis 0 0 0   XYZ
    dof rx ry rz
    limits (-20.0 45.0)
           (-30.0 30.0)
           (-30.0 30.0)
  end
  begin
     id 13 
     name thorax
     direction -0.0323701 0.996236 0.0804149   
     length 2.16   
     axis 0 0 0   XYZ
    dof rx ry rz
    limits (-20.0 45.0)
           (-30.0 30.0)
           (-30.0 30.0)
  end
  begin
     id 14 
     name lowerneck
     direction 0.0307935 0.982251 0.185027   
     length 1.43558   
     axis 0 0 0   XYZ
    dof rx ry rz
    limits (-20.0 45.0)
           (-30.0 30.0)
           (-30.0 30.0)
  end
  begin
     id 15 
     name upperneck
     direction -0.0927153 0.994775 0.0427454   
     length 1.44603   
     axis 0 0 0   XYZ
    dof rx ry rz
    limits (-20.0 45.0)
           (-30.0 30.0)
           (-30.0 30.0)
  end
  begin
     id 16
     name head
     direction -0.0341265 0.999406 -0.00472033  
     length 1.45931  
     axis 0 0 0   XYZ
    dof rx ry rz
    limits (-20.0 45.0)
           (-30.0 30.0)
           (-30.0 30.0)
  end
  begin
     id 17 
     name lclavicle
     direction 0.820755 0.555306 -0.134151  
     length 2.66075  
     axis 0 0 0   XYZ
    dof ry rz
    limits (-20.0 10.0)
           (0.0 20.0)
  end
  begin
     id 18 
     name lhumerus
     direction 1 -4.48971e-011 5.24853e-027   
     length 5.0546   
     axis -180 -30 -90   XYZ
    dof rx ry rz
    limits (-60.0 90.0)
           (-90.0 90.0)
           (-90.0 90.0)
  end
  begin
     id 19
     name lradius
     direction 1 -4.48971e-011 2.76575e-028   
     length 3.39013   
     axis -180 -30 -90   XYZ
    dof rx
    limits (-10.0 170.0)
  end
  begin
     id 20
     name lwrist
     direction 1 -4.48939e-011 -2.27826e-027   
     length 1.69507   
     axis 2.17013e-015 90 90   XYZ
    dof ry
    limits (-180.0 0.0)
 end
  begin
     id 21 
     name lhand
     direction 1 -4.49009e-011 -4.55652e-027   
     length 0.572425   
     axis 2.90745e-015 90 90   XYZ
    dof rx rz
    limits (-90.0 90.0)
           (-45.0 45.0)
  end
  begin
     id 22 
     name lfingers
     direction 1 -4.48955e-011 -9.11303e-027   
     length 0.461504   
     axis 5.81489e-015 90 90   XYZ
    dof rx
    limits (0.0 90.0)
  end
  begin
     id 23
     name lthumb
     direction 0.707107 -6.34929e-011 0.707107   
     length 0.66263   
     axis -90 45 2.85299e-015   XYZ
    dof rx rz
    limits (-45.0 45.0)
           (-45.0 45.0)
  end
  begin
     id 24 
     name rclavicle
     direction -0.754477 0.632921 -0.173712   
     length 2.73081  
     axis 0 0 0   XYZ 
    dof ry rz
    limits (-10.0 20.0)
           (-20.0 0.0)
  end
  begin
     id 25 
     name rhumerus
     direction -1 -4.48969e-011 5.1496e-027  
     length 5.0701   
     axis -180 30 90   XYZ
    dof rx ry rz
    limits (-90.0 60.0)
           (-90.0 90.0)
           (-90.0 90.0)
  end
  begin
     id 26 
     name rradius
     direction -1 -4.48967e-011 -7.15624e-028   
     length 3.14957   
     axis -180 30 90   XYZ
    dof rx
    limits (-10.0 170.0)
  end
  begin
     id 27 
     name rwrist
     direction -1 -4.48938e-011 -2.27826e-027   
     length 1.57479   
     axis 2.17013e-015 -90 -90   XYZ
    dof ry
    limits (-180.0 0.0)
  end
  begin
     id 28
     name rhand
     direction -1 -4.49008e-011 -4.55652e-027   
     length 0.718191   
     axis 2.90745e-015 -90 -90   XYZ
    dof rx rz
    limits (-90.0 90.0)
           (-45.0 45.0)
  end
  begin
     id 29
     name rfingers
     direction -1 -4.48953e-011 -9.11303e-027   
     length 0.579024   
     axis 5.81489e-015 -90 -90   XYZ
    dof rx
    limits (0.0 90.0)
  end
  begin
     id 30
     name rthumb
     direction -0.707107 -6.34937e-011 0.707107   
     length 0.831366   
     axis -90 -45 -2.85299e-015   XYZ
    dof rx rz
    limits (-45.0 45.0)
           (-45.0 45.0)
  end
:hierarchy
  begin
    root lhipjoint rhipjoint lowerback
    lhipjoint lfemur
    lfemur ltibia
    ltibia lfoot
    lfoot ltoes
    rhipjoint rfemur
    rfemur rtibia
    rtibia rfoot
    rfoot rtoes
    lowerback upperback
    upperback thorax
    thorax lowerneck lclavicle rclavicle
    lowerneck upperneck
    upperneck head
    lclavicle lhumerus
    lhumerus lradius
    lradius lwrist
    lwrist lhand lthumb
    lhand lfingers
    rclavicle rhumerus
    rhumerus rradius
    rradius rwrist
    rwrist rhand rthumb
    rhand rfingers
  end

#!OML:ASF H:\Male1\Project 1\Capture day 1\Session 1\Male1.ASF
:FULLY-SPECIFIED
:DEGREES
1
root 8.35855 15.4458 3.8379 177.69 7.00505 -179.584
lowerback 7.69513 1.97906 0.201431
upperback 2.85566 2.83298 -1.14364
thorax -1.29248 1.50748 -1.5358
lowerneck -5.91737 6.26186 11.6857
upperneck 5.98057 8.05221 -8.71663
head 3.57262 3.93825 -4.10956
rclavicle 2.43511e-015 5.96354e-015
rhumerus -36.3009 0.716413 -86.1519
rradius 33.2561
rwrist -16.1947
rhand -17.4828 5.01566
rfingers 7.12502
rthumb 8.76942 -24.7822
lclavicle 2.43511e-015 5.96354e-015
lhumerus -32.4169 2.91082 82.5732
lradius 25.0425
lwrist -1.70708
lhand -18.1421 6.52577
lfingers 7.12502
lthumb 8.1332 36.3493
rfemur -2.28742 15.9811 20.6491
rtibia 22.0201
rfoot -25.7819 -32.1418
rtoes -22.7713
lfemur -1.78797 -15.5175 -16.9377
ltibia 21.581
lfoot -18.8546 26.0531
ltoes -14.5077
2
root 8.35721 15.4416 3.83873 177.724 6.9679 -179.476
lowerback 7.65892 1.84701 0.131669
upperback 2.89255 2.65375 -0.94452
thorax -1.25206 1.41616 -1.27436
lowerneck -5.79821 6.40292 10.9872
upperneck 5.67701 8.26223 -8.29309
head 3.43591 4.04258 -3.86024
rclavicle -4.18442e-014 7.55382e-015
rhumerus -36.2275 1.28556 -86.1185
rradius 33.1987
rwrist -15.9393
rhand -17.1848 5.08415
rfingers 7.12502
rthumb 9.05699 -24.7014
lclavicle -4.18442e-014 7.55382e-015
lhumerus -32.4836 3.82355 82.4897
lradius 25.0963
lwrist -2.12072
lhand -18.1442 6.34594
lfingers 7.12502
lthumb 8.1312 36.1695
rfemur -2.23573 15.8011 20.7587
rtibia 21.8802
rfoot -25.2903 -32.3043
rtoes -23.8325
lfemur -1.96216 -15.5479 -16.8087
ltibia 21.8397
lfoot -18.9937 26.0114
ltoes -14.4414
3
root 8.35704 15.4406 3.83986 177.75 6.94106 -179.451
lowerback 7.66075 1.80353 0.0623079
upperback 2.89049 2.59059 -0.88822
thorax -1.26227 1.38348 -1.17248
lowerneck -5.79662 6.48946 10.8873
upperneck 5.64253 8.38007 -8.22813
head 3.42967 4.10074 -3.81663
rclavicle -1.74434e-014 1.98785e-014
rhumerus -36.2429 1.13276 -86.0582
rradius 33.1453
rwrist -15.3883
rhand -16.7291 5.17295
rfingers 7.12502
rthumb 9.49671 -24.5931
lclavicle -1.74434e-014 1.98785e-014
lhumerus -32.5454 4.23425 82.3832
lradius 25.1601
lwrist -2.32386
lhand -18.0905 6.4201
lfingers 7.12502
lthumb 8.18297 36.2416
rfemur -2.32984 15.5092 20.7663
rtibia 21.9968
rfoot -24.8586 -32.2919
rtoes -24.7623
lfemur -1.96553 -15.6386 -16.7851
ltibia 21.7818
lfoot -18.8755 26.1123
ltoes -14.6046
4
root 8.35806 15.4447 3.8399 177.758 6.94493 -179.527
lowerback 7.6595 1.84485 -0.00235822
upperback 2.89622 2.64213 -0.972577
thorax -1.25341 1.41046 -1.2272
lowerneck -5.78493 6.46544 11.0008
upperneck 5.53926 8.322 -8.12708
head 3.39147 4.0765 -3.80908
rclavicle 3.97072e-014 -7.55382e-015
rhumerus -36.3628 1.12719 -86.2351
rradius 33.4246
rwrist -15.3851
rhand -16.5099 4.92505
rfingers 7.12502
rthumb 9.70824 -24.8312
lclavicle 3.97072e-014 -7.55382e-015
lhumerus -32.5927 3.94014 82.3559
lradius 25.2842
lwrist -1.98
lhand -18.1611 6.42632
lfingers 7.12502
lthumb 8.1149 36.2505
rfemur -2.38796 15.3322 20.6563
rtibia 22.0535
rfoot -24.855 -32.0977
rtoes -24.6411
lfemur -1.98331 -15.564 -16.8551
ltibia 21.7873
lfoot -18.8039 26.1028
ltoes -14.9637
5
root 8.35853 15.4452 3.84034 177.769 6.92621 -179.539
lowerback 7.66342 1.83531 -0.0516734
upperback 2.9076 2.62721 -0.983476
thorax -1.24578 1.40351 -1.20944
lowerneck -5.71837 6.47792 10.8031
upperneck 5.33211 8.32371 -7.81305
head 3.29646 4.08333 -3.68622
rclavicle -9.44227e-015 3.97569e-015
rhumerus -36.4591 1.18939 -86.3505
rradius 33.6775
rwrist -15.2296
rhand -16.3303 4.71283
rfingers 7.12502
rthumb 9.88154 -25.0353
lclavicle -9.44227e-015 3.97569e-015
lhumerus -32.6564 4.00297 82.2959
lradius 25.3815
lwrist -1.89647
lhand -18.2826 6.40224
lfingers 7.12502
lthumb 7.99762 36.2309
rfemur -2.45493 15.2012 20.6253
rtibia 22.1485
rfoot -24.9278 -31.9627
rtoes -24.4658
lfemur -1.98341 -15.5339 -16.8567
ltibia 21.7431
lfoot -18.7079 26.0905
ltoes -15.1375
6
root 8.35909 15.4455 3.84056 177.774 6.9014 -179.552
lowerback 7.67427 1.832 -0.0844846
upperback 2.92022 2.62206 -1.00906
thorax -1.23907 1.40183 -1.21709
lowerneck -5.63134 6.46998 10.5738
upperneck 5.07646 8.29633 -7.43085
head 3.17661 4.07735 -3.54134
rclavicle -3.24516e-014 1.55052e-014
rhumerus -36.5996 1.23921 -86.49
rradius 34.0621
rwrist -15.1133
rhand -16.2185 4.45002
rfingers 7.12502
rthumb 9.9894 -25.2929
lclavicle -3.24516e-014 1.55052e-014
lhumerus -32.7248 4.01638 82.2398
lradius 25.4714
lwrist -1.79834
lhand -18.457 6.3909
lfingers 7.12502
lthumb 7.82929 36.2259
rfemur -2.50106 15.1087 20.598
rtibia 22.22
rfoot -25.084 -31.8264
rtoes -24.0942
lfemur -1.98966 -15.4885 -16.8563
ltibia 21.7159
lfoot -18.6131 26.0522
ltoes -15.2724
7
root 8.35959 15.4448 3.84054 177.778 6.8639 -179.555
lowerback 7.68714 1.82268 -0.108742
upperback 2.93603 2.60982 -1.02686
thorax -1.23033 1.39667 -1.22092
lowerneck -5.5325 6.45714 10.3022
upperneck 4.78678 8.26556 -7.0175
head 3.04145 4.0698 -3.38207
rclavicle 1.73937e-014 -9.93923e-015
rhumerus -36.778 1.34613 -86.6384
rradius 34.5766
rwrist -15.0617
rhand -16.1552 4.19311
rfingers 7.12502
rthumb 10.0504 -25.5469
lclavicle 1.73937e-014 -9.93923e-015
lhumerus -32.7974 4.0684 82.1891
lradius 25.5408
lwrist -1.74504
lhand -18.6447 6.37214
lfingers 7.12502
lthumb 7.64808 36.2139
rfemur -2.51052 15.0527 20.5848
rtibia 22.2355
rfoot -25.2398 -31.7297
rtoes -23.71
lfemur -2.03749 -15.4331 -16.8432
ltibia 21.7657
lfoot -18.5517 25.9854
ltoes -15.3778
8
root 8.35998 15.4433 3.8403 177.782 6.81353 -179.552
lowerback 7.70157 1.8062 -0.132585
upperback 2.95544 2.58834 -1.03065
thorax -1.21954 1.38686 -1.20976
lowerneck -5.44753 6.45408 10.0377
upperneck 4.50418 8.25165 -6.64255
head 2.91431 4.06922 -3.23465
rclavicle 1.69464e-014 -1.70955e-014
rhumerus -36.9833 1.50894 -86.7814
rradius 35.1936
rwrist -15.0809
rhand -16.1161 4.0011
rfingers 7.12502
rthumb 10.0882 -25.7371
lclavicle 1.69464e-014 -1.70955e-014
lhumerus -32.868 4.17952 82.1478
lradius 25.5786
lwrist -1.75967
lhand -18.8082 6.33601
lfingers 7.12502
lthumb 7.49032 36.1834
rfemur -2.50774 15.0184 20.5848
rtibia 22.2426
rfoot -25.341 -31.6936
rtoes -23.507
lfemur -2.09939 -15.3747 -16.821
ltibia 21.8396
lfoot -18.4967 25.9018
ltoes -15.4688
9
root 8.36018 15.4415 3.83988 177.786 6.75572 -179.546
lowerback 7.7177 1.78244 -0.158325
upperback 2.97793 2.55727 -1.02136
thorax -1.20739 1.37219 -1.18327
lowerneck -5.38776 6.46678 9.80676
upperneck 4.2625 8.26309 -6.35068
head 2.81074 4.07909 -3.11521
rclavicle -3.70733e-014 1.35174e-014
rhumerus -37.1952 1.71173 -86.9103
rradius 35.8665
rwrist -15.1673
rhand -16.0804 3.92304
rfingers 7.12502
rthumb 10.1226 -25.8135
lclavicle -3.70733e-014 1.35174e-014
lhumerus -32.9289 4.33875 82.1207
lradius 25.5813
lwrist -1.81939
lhand -18.8885 6.28901
lfingers 7.12502
lthumb 7.41273 36.1391
rfemur -2.5025 14.9782 20.5903
rtibia 22.2523
rfoot -25.3193 -31.7241
rtoes -23.6486
lfemur -2.16851 -15.3139 -16.7959
ltibia 21.9257
lfoot -18.4485 25.8091
ltoes -15.5604
10
root 8.36021 15.4397 3.83934 177.787 6.69904 -179.547
lowerback 7.73993 1.74921 -0.193906
upperback 3.00396 2.51319 -1.00214
thorax -1.19601 1.351 -1.1401
lowerneck -5.36778 6.50101 9.64183
upperneck 4.09118 8.30682 -6.19324
head 2.74583 4.1019 -3.0427
rclavicle -2.33572e-015 6.36111e-015
rhumerus -37.3912 1.97353 -87.0341
rradius 36.5528
rwrist -15.3328
rhand -16.0507 3.95325
rfingers 7.12502
rthumb 10.1512 -25.7819
lclavicle -2.33572e-015 6.36111e-015
lhumerus -32.9773 4.52871 82.1128
lradius 25.5543
lwrist -1.87708
lhand -18.8709 6.23057
lfingers 7.12502
lthumb 7.42979 36.0801
rfemur -2.50236 14.9218 20.5866
rtibia 22.2727
rfoot -25.2124 -31.7811
rtoes -24.0237
lfemur -2.23329 -15.2507 -16.7798
ltibia 22.0094
lfoot -18.4018 25.7187
ltoes -15.6867
11
root 8.3602 15.4382 3.83876 177.782 6.65366 -179.554
lowerback 7.77062 1.70741 -0.241833
upperback 3.03814 2.45765 -0.976134
thorax -1.18181 1.3243 -1.08219
lowerneck -5.38292 6.55234 9.53652
upperneck 3.78256 8.35564 -5.86989
head 2.94049 4.14719 -3.26219
rclavicle -3.15571e-014 8.74653e-015
rhumerus -37.5484 2.29616 -87.163
rradius 37.2167
rwrist -15.5711
rhand -16.0536 4.04232
rfingers 7.12502
rthumb 10.1485 -25.6929
lclavicle -3.15571e-014 8.74653e-015
lhumerus -33.0089 4.72698 82.1279
lradius 25.5097
lwrist -1.89855
lhand -18.8029 6.16155
lfingers 7.12502
lthumb 7.49536 36.0088
rfemur -2.50398 14.8497 20.5735
rtibia 22.3005
rfoot -25.0477 -31.8407
rtoes -24.5335
lfemur -2.28288 -15.1889 -16.7747
ltibia 22.084
lfoot -18.3632 25.6393
ltoes -15.8359
